<svg width="22" height="24" viewBox="0 0 22 24" fill="none" xmlns="http://www.w3.org/2000/svg">
<path d="M16.1158 7.69568V5.55802C16.1158 4.8919 15.9846 4.2323 15.7297 3.61689C15.4748 3.00147 15.1011 2.44229 14.6301 1.97127C14.1591 1.50026 13.5999 1.12662 12.9845 0.871711C12.3691 0.616798 11.7095 0.485596 11.0434 0.485596C10.3773 0.485596 9.71766 0.616798 9.10224 0.871711C8.48683 1.12662 7.92765 1.50026 7.45663 1.97127C6.98561 2.44229 6.61198 3.00147 6.35707 3.61689C6.10215 4.2323 5.97095 4.8919 5.97095 5.55802V10.6304C5.97095 10.8226 6.0473 11.0069 6.18319 11.1428C6.31909 11.2787 6.5034 11.3551 6.69558 11.3551C6.88777 11.3551 7.07208 11.2787 7.20798 11.1428C7.34387 11.0069 7.42022 10.8226 7.42022 10.6304V9.14494H13.2173V7.69568H7.42022V5.55802C7.42022 4.5971 7.80194 3.67553 8.48141 2.99606C9.16089 2.31658 10.0825 1.93486 11.0434 1.93486C12.0043 1.93486 12.9259 2.31658 13.6053 2.99606C14.2848 3.67553 14.6665 4.5971 14.6665 5.55802V10.5942C14.6665 10.7864 14.7429 10.9707 14.8788 11.1066C15.0147 11.2425 15.199 11.3188 15.3912 11.3188C15.5833 11.3188 15.7677 11.2425 15.9036 11.1066C16.0395 10.9707 16.1158 10.7864 16.1158 10.5942V9.14494H19.739V22.1883H2.34779V9.14494H4.52169V7.69568H0.898529V22.2535C0.898529 22.6206 1.04435 22.9726 1.30391 23.2322C1.56347 23.4918 1.9155 23.6376 2.28258 23.6376H19.8042C20.1712 23.6376 20.5233 23.4918 20.7828 23.2322C21.0424 22.9726 21.1882 22.6206 21.1882 22.2535V7.69568H16.1158Z" fill="#292D32"/>
</svg>
